<?xml version="1.0" encoding="UTF-8"?>
<svg id="Capa_1" xmlns="http://www.w3.org/2000/svg" viewBox="0 0 525.32 612.07">
  <defs>
    <style>
      .cls-1 {
        fill: #f09f34;
      }

      .cls-2 {
        fill: #113149;
      }

      .cls-3 {
        fill: #19476e;
      }
    </style>
  </defs>
  <path class="cls-3" d="M213.55,418.01l-109.23-163.59,109.23,70.75,228.88-233.6L244.87,0c-12.05,4.65-23.91,9.86-35.71,15.11-45.13,20.07-90.43,40.62-135.12,61.66-24.58,11.57-49.29,23.24-72.87,36.72,0,0-7.57,180.15,15.81,263.95,0,0,6.08,50.91,63.75,115.88,45.18,50.89,123.05,95.69,123.05,95.69L525.32,14.2,213.55,418.01Z"/>
  <g>
    <path class="cls-1" d="M490.48,114.82l-.24.44-16.03-9.69-270.42,483.44,41.9,23.07c.1-.05.3-.31.58-.73l47.7-26.26c81.9-49.73,159.98-116.29,182.22-213.87,15.1-66.24,16.1-147.01,14.25-214.69-.22-8.05.24-33.65.03-41.7Z"/>
    <polygon class="cls-1" points="203.79 589 203.79 589 203.78 589 203.79 589"/>
  </g>
  <polygon class="cls-2" points="213.55 418.01 104.32 254.41 203.79 589 525.32 14.2 213.55 418.01"/>
</svg>