<?xml version="1.0" encoding="UTF-8"?>
<svg id="Capa_1" xmlns="http://www.w3.org/2000/svg" viewBox="0 0 2944.36 612.07">
  <defs>
    <style>
      .cls-1 {
        fill: #f09f34;
      }

      .cls-2 {
        fill: #fff;
      }

      .cls-3 {
        fill: #113149;
      }

      .cls-4 {
        fill: #19476e;
      }
    </style>
  </defs>
  <g>
    <path class="cls-4" d="M213.73,418.01l-109.23-163.59,109.23,70.75,228.88-233.6L245.05,0c-12.05,4.65-23.91,9.86-35.71,15.11-45.13,20.07-90.43,40.62-135.12,61.66-24.58,11.57-49.29,23.24-72.87,36.72,0,0-7.57,180.15,15.81,263.95,0,0,6.08,50.91,63.75,115.88,45.18,50.89,123.05,95.69,123.05,95.69L525.5,14.2,213.73,418.01Z"/>
    <g>
      <path class="cls-1" d="M490.66,114.82l-.24.44-16.03-9.69-270.42,483.44,41.9,23.07c.1-.05.3-.31.58-.73l47.7-26.26c81.9-49.73,159.98-116.29,182.22-213.87,15.1-66.24,16.1-147.01,14.25-214.69-.22-8.05.24-33.65.03-41.7Z"/>
      <polygon class="cls-1" points="203.97 589 203.97 589 203.97 589 203.97 589"/>
    </g>
    <polygon class="cls-3" points="213.73 418.01 104.5 254.41 203.97 589 525.5 14.2 213.73 418.01"/>
  </g>
  <g>
    <path class="cls-2" d="M694.64,413.05v-181.65h44.09v28.37c5.01-9.68,11.96-17.29,20.85-22.81,8.89-5.52,19.42-8.29,31.61-8.29,14.35,0,26.4,2.93,36.14,8.8,9.74,5.87,16.6,14.33,20.59,25.38,5.13-10.02,12.99-18.23,23.58-24.61,10.6-6.38,22.78-9.57,36.57-9.57,19.25,0,34.8,5.67,46.65,17,11.85,11.34,17.77,26.06,17.77,44.17v123.21h-44.09v-110.91c0-11.05-2.93-19.82-8.8-26.32-5.87-6.49-14.04-9.74-24.52-9.74-12.53,0-22.24,4.93-29.14,14.78-6.89,9.86-10.34,23.1-10.34,39.73v92.45h-44.09v-110.91c0-11.05-2.93-19.82-8.8-26.32-5.87-6.49-14.04-9.74-24.52-9.74-12.3,0-21.96,5.01-28.96,15.04-7.01,10.03-10.51,23.3-10.51,39.82v92.11h-44.09Z"/>
    <path class="cls-2" d="M1007.36,157.92h48.02v46.14h-48.02v-46.14ZM1009.24,413.05v-181.65h44.09v181.65h-44.09Z"/>
    <path class="cls-2" d="M1192.09,231.4v36.74h-42.21v83.05c0,8.32,2.31,14.81,6.92,19.48,4.61,4.67,10.68,7.01,18.2,7.01,6.04,0,11.73-.8,17.09-2.39v38.11c-6.61,1.59-14.07,2.39-22.39,2.39-19.48,0-35-5.1-46.57-15.29-11.56-10.19-17.35-25.15-17.35-44.86v-87.49h-30.93v-36.74h30.93v-53.49h44.09v53.49h42.21Z"/>
    <path class="cls-2" d="M1216.87,157.92h48.02v46.14h-48.02v-46.14ZM1218.75,413.05v-181.65h44.09v181.65h-44.09Z"/>
    <path class="cls-2" d="M1383.48,481.24c-25.06,0-45.34-5.55-60.84-16.66-15.49-11.11-24.61-27.14-27.34-48.1h44.43c1.25,9.11,5.72,16.32,13.41,21.62,7.69,5.3,17.8,7.95,30.33,7.95,13.67,0,24.44-3.59,32.3-10.77s11.79-17.03,11.79-29.56v-22.73c-4.44,6.27-11.22,11.34-20.34,15.21-9.12,3.87-19.25,5.81-30.42,5.81-25.98,0-46.65-8-62.03-24.01-15.38-16-23.07-37.17-23.07-63.48s7.63-47.68,22.9-63.74c15.27-16.06,35.66-24.09,61.18-24.09,10.82,0,20.85,2.05,30.08,6.15,9.23,4.1,16.46,9.63,21.7,16.58v-19.99h44.09v169.69c0,24.72-7.95,44.26-23.84,58.61-15.89,14.35-37.34,21.53-64.34,21.53ZM1349.47,352.64c8.54,9.06,19.88,13.59,34.01,13.59s25.4-4.53,33.84-13.59c8.43-9.06,12.65-21.1,12.65-36.14s-4.22-26.94-12.65-36.06c-8.43-9.11-19.71-13.67-33.84-13.67s-25.46,4.53-34.01,13.59c-8.54,9.06-12.82,21.1-12.82,36.14s4.27,27.09,12.82,36.14Z"/>
    <path class="cls-2" d="M1563.25,415.79c-18.34,0-33.49-4.96-45.46-14.87-11.96-9.91-17.94-22.44-17.94-37.59s5.5-28.45,16.49-38.19c10.99-9.74,26.63-15.92,46.91-18.54l36.4-4.78c9.8-1.37,14.7-6.15,14.7-14.35,0-6.95-3.13-12.79-9.4-17.52-6.27-4.73-14.58-7.09-24.95-7.09s-18.71,2.56-25.38,7.69c-6.66,5.13-10.34,12.25-11.02,21.36h-42.72c2.16-19.48,10.25-34.89,24.27-46.22,14.01-11.33,32.3-17,54.85-17,24.04,0,43.12,6.32,57.25,18.97,14.12,12.65,21.19,29.73,21.19,51.27v64.08c0,9.8,3.76,14.7,11.28,14.7l5.81-.68v36.06c-6.95,1.37-13.9,2.05-20.85,2.05-9.57,0-17.43-2.22-23.58-6.66-6.15-4.44-9.74-10.82-10.77-19.14-3.99,8.09-11.14,14.53-21.45,19.31-10.31,4.78-22.19,7.18-35.63,7.18ZM1570.6,382.29c13.9,0,24.83-4.44,32.81-13.33,7.97-8.89,11.96-20.34,11.96-34.35v-5.13l-44.77,7.35c-17.77,2.73-26.66,10.88-26.66,24.44,0,6.15,2.45,11.19,7.35,15.12,4.9,3.93,11.33,5.9,19.31,5.9Z"/>
    <path class="cls-2" d="M1803.18,255.49c-.34-.23-1.28-.51-2.82-.85s-3.85-.68-6.92-1.03c-3.08-.34-6.15-.51-9.23-.51-15.61,0-28.54,7.8-38.79,23.41-10.25,15.61-15.38,37.88-15.38,66.82v69.72h-27v-181.65h27v37.42c4.33-11.51,11.96-21.08,22.9-28.71,10.94-7.63,22.44-11.45,34.52-11.45,2.05,0,3.96.06,5.72.17,1.76.11,3.22.23,4.36.34,1.14.11,2.14.23,2.99.34.85.11,1.51.23,1.97.34l.68.17v25.46Z"/>
    <path class="cls-2" d="M1828.3,157.92h31.78v36.74h-31.78v-36.74ZM1830.35,413.05v-181.65h27v181.65h-27Z"/>
    <path class="cls-2" d="M1893.41,322.14c0-17.54,3.47-33.35,10.42-47.42,6.95-14.07,17.06-25.26,30.33-33.58,13.27-8.31,28.62-12.47,46.05-12.47,24.61,0,44.35,7.98,59.21,23.92,14.87,15.95,22.19,36.17,21.96,60.66l-.68,12.3h-140.13c.68,20.62,6.49,36.86,17.43,48.7,10.94,11.85,25.23,17.77,42.89,17.77,13.78,0,25.57-3.22,35.37-9.66,9.8-6.44,15.72-15.35,17.77-26.74h25.98c-3.19,19.14-12.02,33.95-26.49,44.43-14.47,10.48-32.01,15.72-52.63,15.72-17.43,0-32.84-4.13-46.23-12.39-13.39-8.26-23.61-19.45-30.67-33.58-7.07-14.12-10.6-30.02-10.6-47.68ZM1922.46,302.83h110.22c-1.03-15.15-6.15-27.45-15.38-36.91-9.23-9.45-21.59-14.18-37.08-14.18s-28.14,4.59-38.28,13.76c-10.14,9.17-16.63,21.62-19.48,37.34Z"/>
    <path class="cls-2" d="M2156.06,415.79c-21.42,0-38.85-5.87-52.29-17.6-13.44-11.73-20.62-26.49-21.53-44.26h27c.68,10.59,5.24,19.54,13.67,26.83,8.43,7.29,19.48,10.94,33.15,10.94,11.85,0,21.53-2.79,29.05-8.37,7.52-5.58,11.28-12.36,11.28-20.34s-2.45-13.84-7.35-18.28c-4.9-4.44-11.79-7.8-20.68-10.08l-32.98-8.72c-6.61-1.71-12.39-3.73-17.34-6.07-4.96-2.33-9.66-5.32-14.1-8.97-4.44-3.64-7.83-8.29-10.17-13.93-2.34-5.64-3.5-12.1-3.5-19.4,0-14.24,5.78-25.95,17.34-35.12,11.56-9.17,26.46-13.76,44.69-13.76s33.86,4.84,46.22,14.53c12.36,9.68,19.79,22.67,22.3,38.96h-27.34c-1.14-9-5.5-16.26-13.07-21.79-7.58-5.52-16.95-8.29-28.11-8.29-10.37,0-18.69,2.28-24.95,6.84-6.27,4.56-9.4,10.77-9.4,18.63,0,11.96,8.14,20.05,24.44,24.27l32.98,8.37c7.52,1.94,13.84,3.99,18.97,6.15,5.13,2.17,10.17,5.19,15.12,9.06,4.96,3.87,8.69,8.94,11.19,15.21,2.5,6.27,3.76,13.73,3.76,22.39,0,15.72-6.27,28.45-18.8,38.19-12.53,9.74-29.05,14.61-49.56,14.61Z"/>
    <path class="cls-2" d="M2337.03,481.24c-24.84,0-44.4-5.21-58.7-15.64-14.3-10.42-22.53-25.49-24.69-45.2h27.34c1.37,11.85,6.81,21.05,16.32,27.6,9.51,6.55,22.75,9.83,39.73,9.83,17.88,0,31.64-4.53,41.27-13.59,9.63-9.06,14.44-22.13,14.44-39.22v-26.32c-4.22,7.86-11.76,14.21-22.64,19.05-10.88,4.84-23.1,7.26-36.66,7.26-17.89,0-33.38-3.9-46.48-11.71-13.1-7.8-22.9-18.26-29.39-31.36-6.49-13.1-9.74-28.03-9.74-44.77,0-25.86,7.58-47.08,22.73-63.66,15.15-16.58,35.89-24.86,62.2-24.86,12.19,0,23.81,2.68,34.86,8.03,11.05,5.36,19.42,12.25,25.12,20.68v-25.97h26.83v171.57c0,25.18-7.15,44.52-21.45,58.02-14.3,13.5-34.66,20.25-61.09,20.25ZM2292.08,363.58c10.82,11.56,25.23,17.34,43.23,17.34s32.41-5.78,43.23-17.34c10.82-11.56,16.23-27.03,16.23-46.4s-5.41-34.8-16.23-46.65c-10.82-11.85-25.24-17.77-43.23-17.77s-32.41,5.87-43.23,17.6c-10.82,11.74-16.23,27.34-16.23,46.82s5.41,34.83,16.23,46.4Z"/>
    <path class="cls-2" d="M2607.29,389.56c-16.69,17.49-37.97,26.23-63.83,26.23s-47.08-8.77-63.66-26.32c-16.58-17.54-24.86-39.99-24.86-67.33s8.29-49.47,24.86-67.07c16.58-17.6,37.79-26.4,63.66-26.4s46.99,8.77,63.74,26.32c16.75,17.55,25.12,39.93,25.12,67.16s-8.35,49.93-25.03,67.41ZM2543.46,391.69c18,0,32.7-6.49,44.09-19.48,11.39-12.99,17.09-29.68,17.09-50.07s-5.72-36.91-17.17-49.9c-11.45-12.99-26.12-19.48-44-19.48s-32.75,6.49-43.92,19.48c-11.17,12.99-16.75,29.62-16.75,49.9s5.58,37.23,16.75,50.16c11.16,12.93,25.8,19.4,43.92,19.4Z"/>
    <path class="cls-2" d="M2657.44,378.02h35.54v35.03h-35.54v-35.03Z"/>
    <path class="cls-2" d="M2806.28,415.79c-26.32,0-47.54-8.57-63.66-25.72-16.12-17.14-24.18-39.79-24.18-67.93s8.09-50.61,24.27-67.76c16.18-17.14,37.37-25.72,63.57-25.72,20.39,0,37.48,5.67,51.27,17,13.78,11.34,22.33,27.49,25.63,48.45h-26.15c-2.17-12.42-7.83-22.41-17-29.99-9.17-7.57-20.31-11.36-33.41-11.36-18.34,0-32.95,6.32-43.83,18.97-10.88,12.65-16.32,29.45-16.32,50.41s5.47,37.94,16.41,50.58c10.94,12.65,25.52,18.97,43.75,18.97,13.44,0,24.66-3.7,33.66-11.11,9-7.4,14.7-18.06,17.09-31.96h26.49c-3.87,22.22-12.68,38.96-26.4,50.24-13.73,11.28-30.79,16.92-51.18,16.92Z"/>
    <path class="cls-2" d="M2917.36,413.05v-255.13h27v255.13h-27Z"/>
  </g>
</svg>