<?xml version="1.0" encoding="UTF-8"?>
<svg id="Capa_1" xmlns="http://www.w3.org/2000/svg" viewBox="0 0 861.08 861.08">
  <defs>
    <style>
      .cls-1 {
        fill: #f09f34;
      }

      .cls-2 {
        fill: #113149;
      }

      .cls-3 {
        fill: #19476e;
      }
    </style>
  </defs>
  <path class="cls-3" d="M366.05,568.94l-143.43-214.81,143.43,92.9,300.54-306.74L407.18,20.06c-15.83,6.11-31.4,12.95-46.89,19.84-59.26,26.36-118.74,53.34-177.42,80.96-32.27,15.19-64.72,30.52-95.69,48.21,0,0-9.94,236.56,20.76,346.59,0,0,7.98,66.85,83.71,152.16,59.33,66.82,161.58,125.65,161.58,125.65L775.43,38.71l-409.38,530.23Z"/>
  <g>
    <path class="cls-1" d="M729.68,170.83l-.31.57-21.04-12.73-355.09,634.8,55.02,30.29c.13-.07.39-.41.76-.96l62.64-34.48c107.54-65.3,210.07-152.69,239.28-280.83,19.82-86.99,21.14-193.04,18.71-281.9-.29-10.57.31-44.19.04-54.76Z"/>
    <polygon class="cls-1" points="353.24 793.47 353.24 793.47 353.23 793.46 353.24 793.47"/>
  </g>
  <polygon class="cls-2" points="366.05 568.94 222.62 354.13 353.24 793.47 775.43 38.71 366.05 568.94"/>
</svg>